<?xml version="1.0" encoding="UTF-8" standalone="no"?>
<!-- Created with Inkscape (http://www.inkscape.org/) by Ilan Emanuel Fritzler-->

<svg
   width="75.588715mm"
   height="75.753815mm"
   viewBox="0 0 75.588715 75.753815"
   version="1.1"
   id="svg26448"
   xml:space="preserve"
   xmlns="http://www.w3.org/2000/svg"
   xmlns:svg="http://www.w3.org/2000/svg"><defs
     id="defs26445" /><g
     id="layer1"
     transform="translate(-17.126158,-28.37651)"><g
       transform="matrix(0.04345829,0,0,-0.04345829,9.7382486,110.03838)"
       fill="#000000"
       stroke="none"
       id="g26484"
       style="fill:#343132;fill-opacity:1"><path
         d="m 1100,1869 c -31,-13 -75,-54 -100,-95 -16,-25 -31,-33 -92,-47 -79,-19 -221,-74 -270,-106 l -32,-19 -48,25 c -31,16 -72,27 -112,30 -60,5 -66,4 -89,-21 -13,-14 -32,-47 -42,-73 -10,-27 -41,-79 -70,-118 -67,-89 -75,-106 -75,-150 0,-54 53,-105 109,-105 23,0 41,-2 41,-3 0,-2 -9,-39 -20,-82 -27,-107 -27,-273 0,-381 68,-267 254,-464 520,-555 89,-31 104,-33 235,-33 158,-1 222,12 342,69 98,46 154,85 242,169 136,131 217,256 251,391 38,149 20,274 -54,385 -24,36 -56,90 -70,120 -61,122 -160,234 -273,306 l -51,34 11,35 c 18,60 -6,94 -110,153 -88,50 -168,83 -201,81 -9,0 -28,-5 -42,-10 z m 135,-73 c 28,-12 76,-39 108,-60 48,-31 57,-41 57,-66 0,-57 -98,-90 -159,-54 -32,19 -69,70 -80,110 -8,33 -47,46 -57,19 -8,-19 20,-83 58,-136 19,-27 42,-43 78,-56 48,-17 55,-25 111,-111 93,-146 100,-204 32,-304 -64,-95 -60,-94 -129,-58 -32,18 -59,35 -58,38 0,4 8,24 18,46 25,56 5,70 -27,19 -32,-51 -82,-93 -111,-93 -13,0 -31,9 -41,20 -18,20 -17,22 8,73 33,63 34,93 7,102 -53,17 -185,-33 -216,-81 -16,-24 -16,-26 4,-46 14,-15 39,-23 84,-27 l 63,-6 v -40 c 0,-36 -4,-42 -35,-58 -27,-14 -49,-17 -92,-13 -45,4 -58,3 -58,-8 0,-33 134,-52 216,-32 13,4 24,2 24,-2 0,-5 -30,-19 -67,-32 -38,-12 -109,-43 -158,-70 l -91,-47 -56,17 c -149,46 -197,130 -198,346 0,53 3,64 26,85 51,46 67,127 45,223 -12,49 -25,63 -44,47 -12,-9 -13,-20 -5,-54 5,-23 8,-66 5,-96 -3,-48 -9,-59 -44,-92 -89,-83 -233,-84 -233,-2 0,31 14,57 61,113 20,25 54,80 74,123 20,42 42,77 48,78 59,5 151,-24 177,-56 10,-12 26,-7 93,30 93,50 207,90 285,100 51,7 55,10 84,56 16,27 39,56 51,64 31,22 84,18 142,-9 z m 440,-587 c 82,-22 152,-102 175,-200 14,-58 10,-67 -22,-45 -29,20 -87,21 -116,0 -49,-34 -69,-126 -37,-171 8,-12 37,-29 64,-38 27,-9 56,-24 66,-35 17,-18 16,-22 -15,-77 -77,-136 -257,-326 -255,-268 1,6 11,43 24,84 51,159 3,325 -134,466 -36,37 -65,73 -65,81 0,7 10,25 23,41 13,15 38,49 55,75 22,31 48,54 84,72 57,28 92,32 153,15 z m -432,-178 c 18,-11 72,-61 119,-110 117,-122 160,-207 165,-324 3,-73 0,-90 -26,-152 -27,-65 -28,-72 -14,-94 15,-23 14,-26 -12,-47 -47,-37 -153,-85 -238,-106 -99,-25 -281,-21 -360,7 -93,34 -189,146 -216,255 -7,25 -25,74 -41,110 -15,36 -31,88 -35,117 -6,49 -6,52 22,66 15,8 53,17 83,20 39,4 82,20 150,55 52,27 125,59 161,71 56,18 68,27 82,56 9,19 28,52 41,74 24,37 28,39 56,31 17,-5 45,-18 63,-29 z m 564,-133 c 38,-43 42,-129 5,-108 -9,5 -34,16 -54,24 -30,12 -38,20 -38,41 0,61 49,85 87,43 z M 588,814 c 2,-1 -11,-16 -28,-33 -30,-30 -31,-33 -25,-88 4,-32 18,-85 32,-118 13,-33 33,-89 44,-125 12,-36 34,-89 50,-118 l 30,-54 -32,19 c -18,10 -63,47 -100,83 -64,62 -67,68 -78,131 -19,114 -10,201 34,304 l 14,36 28,-18 c 15,-9 29,-18 31,-19 z"
         id="path26470"
         style="fill:#343132;fill-opacity:1" /><path
         d="m 1112,1498 c -31,-31 2,-108 48,-108 28,0 53,42 44,74 -10,41 -65,61 -92,34 z"
         id="path26472"
         style="fill:#343132;fill-opacity:1" /><path
         d="m 620,1290 c -23,-23 -24,-33 -10,-60 27,-51 90,-44 90,8 0,54 -47,85 -80,52 z"
         id="path26474"
         style="fill:#343132;fill-opacity:1" /><path
         d="m 1553,1068 c -29,-38 -18,-88 20,-88 30,0 47,18 47,50 0,43 -44,68 -67,38 z"
         id="path26476"
         style="fill:#343132;fill-opacity:1" /><path
         d="m 1261,754 c -32,-27 -48,-76 -37,-119 8,-33 34,-32 42,3 11,53 24,73 57,87 42,18 49,25 36,42 -18,21 -65,15 -98,-13 z"
         id="path26478"
         style="fill:#343132;fill-opacity:1" /><path
         d="m 835,528 c -27,-14 -45,-38 -45,-60 0,-22 32,-24 49,-4 18,21 61,29 92,15 59,-24 75,17 18,46 -33,18 -86,19 -114,3 z"
         id="path26480"
         style="fill:#343132;fill-opacity:1" /><path
         d="m 1206,515 c -71,-25 -99,-75 -42,-75 56,0 58,-66 3,-101 l -32,-20 35,3 c 26,2 40,11 55,35 17,27 26,31 58,30 26,-1 44,5 59,21 27,27 17,40 -14,18 -29,-20 -41,-20 -67,2 -19,15 -20,20 -9,49 17,44 3,55 -46,38 z"
         id="path26482"
         style="fill:#343132;fill-opacity:1" /></g></g></svg>
